<svg width="24" height="25" viewBox="0 0 24 25" fill="none" xmlns="http://www.w3.org/2000/svg">
<path opacity="0.12" d="M13.8195 2.5625H10.7125C8.47229 2.5625 7.35219 2.5625 6.49654 2.99847C5.74389 3.38197 5.13197 3.99389 4.74847 4.74654C4.3125 5.60219 4.3125 6.72229 4.3125 8.9625V18.4694L4.36943 18.4125L4.36943 18.4125C4.71533 18.0666 4.88828 17.8937 5.09011 17.77C5.26906 17.6603 5.46415 17.5795 5.66822 17.5305C5.8984 17.4753 6.14299 17.4753 6.63217 17.4753H20.2195V8.9625C20.2195 6.72229 20.2195 5.60219 19.7835 4.74654C19.4 3.99389 18.7881 3.38197 18.0354 2.99847C17.1798 2.5625 16.0597 2.5625 13.8195 2.5625Z" fill="white"/>
<path d="M17.0193 1.8125C17.5669 1.8125 18.0232 1.81149 18.3943 1.8418C18.774 1.87285 19.1304 1.94058 19.4675 2.11231C19.985 2.37595 20.406 2.79703 20.6697 3.31446L20.7293 3.44141C20.8576 3.74075 20.9121 4.05537 20.9392 4.3877C20.9695 4.75883 20.9695 5.21502 20.9695 5.7627V17.9727C20.9695 17.9947 20.9675 18.0165 20.9656 18.0381C20.9632 18.5026 20.9562 18.8579 20.9128 19.1689L20.8835 19.3467C20.5386 21.1332 19.2068 22.5546 17.4714 23.0283L17.1189 23.1104C16.6553 23.1997 16.1149 23.1963 15.2478 23.1963H6.79761C5.06659 23.1962 3.65273 21.8365 3.56617 20.127L3.56226 19.9609V5.7627C3.56226 5.21503 3.56123 4.75883 3.59156 4.3877C3.62259 4.00798 3.69037 3.65159 3.86206 3.31446C4.1257 2.79704 4.5468 2.37596 5.06421 2.11231C5.40133 1.94061 5.75776 1.87284 6.13746 1.8418C6.50856 1.81148 6.96482 1.8125 7.51246 1.8125H17.0193ZM6.79761 18.2256C5.83927 18.2257 5.06232 19.0026 5.06226 19.9609C5.06243 20.9192 5.83934 21.6962 6.79761 21.6963H15.2478C16.1844 21.6963 16.5474 21.6931 16.8347 21.6377L17.0759 21.582C18.2633 21.258 19.1738 20.2848 19.4099 19.0625L19.4431 18.8252C19.4569 18.6742 19.4595 18.4868 19.4627 18.2256H6.79761ZM7.51246 3.3125C6.94008 3.3125 6.55539 3.31275 6.25953 3.33692C5.97259 3.36038 5.83541 3.40309 5.74488 3.44922C5.50979 3.56905 5.31879 3.76003 5.19898 3.99512C5.15285 4.08566 5.11013 4.22281 5.08667 4.50977C5.0625 4.80565 5.06226 5.19028 5.06226 5.7627V17.2305C5.5638 16.911 6.15891 16.7256 6.79761 16.7256H19.4695V5.7627C19.4695 5.19027 19.4683 4.80565 19.4441 4.50977C19.4265 4.29463 19.3993 4.16348 19.3669 4.07325L19.3328 3.99512C19.213 3.76005 19.0219 3.56907 18.7869 3.44922C18.6964 3.40312 18.559 3.36038 18.2722 3.33692C17.9764 3.31275 17.5916 3.3125 17.0193 3.3125H7.51246ZM15.325 6.78711C15.703 6.82561 15.9977 7.14505 15.9978 7.53321C15.9978 7.92146 15.703 8.2408 15.325 8.2793L15.2478 8.28321H9.28296C8.86889 8.28304 8.53296 7.94732 8.53296 7.53321C8.53308 7.1192 8.86897 6.78338 9.28296 6.78321H15.2478L15.325 6.78711Z" fill="white"/>
</svg>
