<svg width="24" height="25" viewBox="0 0 24 25" fill="none" xmlns="http://www.w3.org/2000/svg">
<path opacity="0.12" d="M21.769 18.9992V10.937C21.769 10.3532 21.769 10.0613 21.6928 9.79321C21.6252 9.55572 21.5143 9.33278 21.3657 9.13567C21.1978 8.91313 20.965 8.73704 20.4994 8.38487L13.9882 3.46007C13.2964 2.9368 12.9505 2.67517 12.5701 2.57438C12.2344 2.48542 11.8813 2.48542 11.5456 2.57438C11.1652 2.67517 10.8193 2.9368 10.1275 3.46007L3.6163 8.38487C3.15068 8.73704 2.91787 8.91313 2.75 9.13567C2.60132 9.33278 2.49042 9.55572 2.4229 9.79321C2.34668 10.0613 2.34668 10.3532 2.34668 10.937V18.9992C2.34668 20.1193 2.34668 20.6794 2.56467 21.1072C2.75641 21.4835 3.06237 21.7895 3.4387 21.9812C3.86652 22.1992 4.42657 22.1992 5.54668 22.1992H9.14449V15.9311C9.14449 15.0805 9.14449 14.6552 9.27176 14.3157C9.47457 13.7747 9.90143 13.3478 10.4424 13.145C10.7819 13.0177 11.2072 13.0177 12.0578 13.0177C12.9084 13.0177 13.3337 13.0177 13.6732 13.145C14.2142 13.3478 14.6411 13.7747 14.8439 14.3157C14.9712 14.6552 14.9712 15.0805 14.9712 15.9311V22.1992H18.569C19.6891 22.1992 20.2491 22.1992 20.677 21.9812C21.0533 21.7895 21.3593 21.4835 21.551 21.1072C21.769 20.6794 21.769 20.1193 21.769 18.9992Z" fill="white"/>
<path d="M11.6986 1.51925C12.1236 1.43209 12.5648 1.44704 12.9847 1.56319L13.2083 1.63839C13.4257 1.72452 13.625 1.84163 13.8226 1.97725C14.0782 2.1527 14.3701 2.38734 14.7181 2.66573L20.9564 7.65597C21.3646 7.98257 21.6832 8.22944 21.9154 8.54952L22.0511 8.75558C22.1772 8.96712 22.2745 9.19516 22.3402 9.43331L22.3743 9.57784C22.4237 9.82032 22.4362 10.076 22.4388 10.3689V19.2155C22.4388 19.763 22.4398 20.2195 22.4095 20.5905C22.3824 20.9227 22.3278 21.2376 22.1995 21.5368L22.139 21.6648C21.9083 22.1173 21.5579 22.4963 21.1273 22.7605L20.9378 22.8659C20.6006 23.0378 20.2435 23.1054 19.8636 23.1364C19.4926 23.1667 19.0369 23.1657 18.4896 23.1657H15.1019C15.0955 23.1659 15.0887 23.1667 15.0824 23.1667C15.0758 23.1667 15.0693 23.1659 15.0628 23.1657H9.4388C9.43246 23.1659 9.42564 23.1667 9.41927 23.1667C9.41273 23.1667 9.40623 23.1659 9.39973 23.1657H6.01302C5.46536 23.1657 5.00914 23.1668 4.63802 23.1364C4.30562 23.1093 3.99113 23.0539 3.69173 22.9255L3.56477 22.8659C3.1122 22.6353 2.73326 22.2848 2.46907 21.8542L2.36263 21.6648C2.19084 21.3275 2.12315 20.9704 2.09212 20.5905C2.07698 20.405 2.07037 20.1981 2.06673 19.9694L2.06282 19.2155V10.7409C2.06282 10.2179 2.05639 9.8147 2.16145 9.43331L2.23763 9.19893C2.32405 8.96831 2.44127 8.74953 2.58626 8.54952L2.67708 8.43331C2.89919 8.16691 3.18769 7.94201 3.54524 7.65597L9.78352 2.66573L10.2659 2.28292C10.4146 2.16751 10.5521 2.06505 10.68 1.97725C10.9434 1.79647 11.2091 1.64862 11.5179 1.56319L11.6986 1.51925ZM12.0833 2.97433L11.9173 3.0085C11.8307 3.03252 11.7203 3.08205 11.5286 3.21358C11.4287 3.28216 11.3181 3.36547 11.1868 3.46749L10.72 3.83663L4.48274 8.82784C4.12753 9.11201 3.96897 9.2423 3.8763 9.33956L3.8011 9.43038C3.73518 9.52132 3.68121 9.62044 3.64192 9.7253L3.60774 9.83175C3.56917 9.97177 3.56282 10.1346 3.56282 10.7409V19.2155L3.56575 19.946C3.56892 20.1505 3.57516 20.3206 3.58724 20.4685C3.61067 20.7553 3.65345 20.8926 3.69954 20.9831L3.74739 21.07C3.86746 21.2656 4.03981 21.4252 4.24544 21.53L4.32356 21.5632C4.41381 21.5955 4.54481 21.6237 4.76009 21.6413C5.05596 21.6655 5.44061 21.6657 6.01302 21.6657H8.66927V15.8093C8.66926 15.0966 8.65968 14.5548 8.81477 14.0964L8.87044 13.946C9.16967 13.2069 9.7773 12.6313 10.5374 12.3737L10.7132 12.323C11.1337 12.2209 11.6267 12.2282 12.2503 12.2282C12.9633 12.2282 13.5057 12.2186 13.9642 12.3737L14.1146 12.4294C14.8537 12.7287 15.4294 13.3361 15.6868 14.0964L15.7376 14.2722C15.8142 14.5876 15.8296 14.9435 15.8324 15.365V21.6657H18.4896C19.0617 21.6657 19.4457 21.6655 19.7415 21.6413C20.0282 21.6179 20.1656 21.576 20.2562 21.53L20.3431 21.4812C20.5387 21.3611 20.6983 21.1887 20.8031 20.9831L20.8363 20.905C20.8686 20.8147 20.8968 20.6836 20.9144 20.4685C20.9385 20.1726 20.9388 19.7878 20.9388 19.2155V10.7409C20.9388 10.2865 20.9353 10.0811 20.9173 9.94796L20.8939 9.83175C20.8641 9.72373 20.8202 9.62011 20.763 9.52413L20.7015 9.43038C20.6163 9.31286 20.493 9.20637 20.0199 8.82784L13.7816 3.83663C13.4166 3.54464 13.1738 3.35077 12.974 3.21358C12.8299 3.11468 12.7313 3.06213 12.6546 3.03194L12.5843 3.0085C12.4208 2.96329 12.2503 2.95174 12.0833 2.97433ZM12.2503 13.7282C11.6249 13.7282 11.3376 13.734 11.1634 13.7605L11.0179 13.7946C10.6957 13.9041 10.4333 14.1392 10.2894 14.4431L10.2357 14.5769C10.1797 14.7423 10.1693 14.9754 10.1693 15.8093V21.6657H14.3324V15.8093C14.3323 15.1838 14.3266 14.8966 14.3001 14.7224L14.2659 14.5769C14.1566 14.2544 13.9215 13.9924 13.6175 13.8483L13.4827 13.7946C13.3173 13.7388 13.0841 13.7282 12.2503 13.7282Z" fill="white"/>
</svg>
