<svg width="24" height="25" viewBox="0 0 24 25" fill="none" xmlns="http://www.w3.org/2000/svg">
<path opacity="0.12" d="M14.8145 2.57355C15.2515 2.28643 15.7837 2.18206 16.2969 2.28253C16.6239 2.34656 16.9523 2.53556 17.6084 2.91437C18.2646 3.29325 18.5925 3.48345 18.8115 3.73468C19.1552 4.12898 19.331 4.64218 19.3008 5.16437C19.2815 5.49703 19.1383 5.84784 18.8516 6.54913C18.5853 7.19867 18.7052 7.93228 19.0576 8.53937C19.0618 8.54656 19.0662 8.55364 19.0703 8.56085C19.4207 9.16875 19.9953 9.63926 20.6904 9.73468C21.4411 9.83705 21.8165 9.88877 22.1143 10.0384C22.5816 10.2733 22.9388 10.6822 23.1084 11.1771C23.2163 11.4922 23.2168 11.871 23.2168 12.6282C23.2168 13.3859 23.2164 13.7651 23.1084 14.0804C22.9388 14.5752 22.5816 14.9841 22.1143 15.2191C21.8165 15.3686 21.441 15.4194 20.6904 15.5218C19.9955 15.616 19.4211 16.0859 19.0713 16.6937C19.0669 16.7012 19.062 16.7086 19.0576 16.7161C18.7053 17.3238 18.5849 18.0581 18.8506 18.7083C19.1373 19.4097 19.2815 19.7604 19.3008 20.0931C19.3309 20.6152 19.1552 21.1285 18.8115 21.5228C18.5926 21.7739 18.2644 21.9634 17.6084 22.3421C16.9524 22.7209 16.6238 22.9108 16.2969 22.9749C15.7835 23.0754 15.2506 22.9702 14.8135 22.6829C14.5351 22.4999 14.3027 22.2006 13.8389 21.6019C13.4089 21.0463 12.7025 20.7855 12 20.7855C11.9958 20.7855 11.9915 20.7855 11.9873 20.7855C11.2852 20.7843 10.5904 21.0464 10.1611 21.6019C9.69726 22.2006 9.46491 22.4999 9.18652 22.6829C8.7494 22.9702 8.21646 23.0754 7.70313 22.9749C7.37616 22.9108 7.04765 22.7209 6.3916 22.3421C5.73561 21.9634 5.40743 21.7739 5.18848 21.5228C4.84485 21.1286 4.66909 20.6152 4.69922 20.0931C4.71848 19.7604 4.86274 19.4096 5.14941 18.7083C5.4145 18.058 5.29374 17.3246 4.94141 16.7171C4.93673 16.709 4.93239 16.7008 4.92773 16.6927C4.57831 16.0854 4.00389 15.616 3.30957 15.5218C2.55899 15.4194 2.18347 15.3686 1.88574 15.2191C1.41838 14.9841 1.06122 14.5752 0.891602 14.0804C0.783569 13.7651 0.78418 13.3859 0.78418 12.6282C0.78418 11.871 0.783699 11.4922 0.891602 11.1771C1.06122 10.6822 1.41838 10.2733 1.88574 10.0384C2.18349 9.88877 2.55887 9.83705 3.30957 9.73468C4.0041 9.63926 4.57843 9.1691 4.92871 8.56183C4.93281 8.55472 4.93729 8.54744 4.94141 8.54034C5.2941 7.933 5.41406 7.1993 5.14844 6.54913C4.86173 5.8478 4.71849 5.49706 4.69922 5.16437C4.66899 4.64216 4.84477 4.12898 5.18848 3.73468C5.40745 3.48349 5.73549 3.29415 6.3916 2.91534C7.04785 2.53646 7.37606 2.34657 7.70313 2.28253C8.21628 2.18208 8.74852 2.28646 9.18555 2.57355C9.46404 2.75657 9.69615 3.05663 10.1602 3.65558C10.5895 4.2099 11.2832 4.4723 11.9844 4.47101H12.0137C12.7153 4.47223 13.4098 4.21003 13.8398 3.65558C14.3039 3.05657 14.5359 2.75658 14.8145 2.57355ZM12 9.56964C10.3107 9.56964 8.94155 10.9389 8.94141 12.6282C8.94141 14.3177 10.3106 15.6878 12 15.6878C13.6894 15.6878 15.0586 14.3177 15.0586 12.6282C15.0585 10.9389 13.6893 9.56964 12 9.56964Z" fill="white"/>
<path d="M14.8145 2.57336L14.4027 1.94651L14.4025 1.9466L14.8145 2.57336ZM16.2969 2.28235L16.441 1.54632L16.441 1.54632L16.2969 2.28235ZM17.6084 2.91418L17.9834 2.26467L17.9834 2.26467L17.6084 2.91418ZM18.8115 3.7345L19.3769 3.24169L19.3768 3.24162L18.8115 3.7345ZM19.3008 5.16418L20.0495 5.20764L20.0495 5.20746L19.3008 5.16418ZM18.8516 6.54895L19.5455 6.83338L19.5458 6.83275L18.8516 6.54895ZM19.0576 8.53918L19.7062 8.16264L19.7062 8.16264L19.0576 8.53918ZM19.0703 8.56067L19.7201 8.18614L19.7201 8.18611L19.0703 8.56067ZM20.6904 9.7345L20.5884 10.4775L20.5891 10.4776L20.6904 9.7345ZM22.1143 10.0382L22.4511 9.3681L22.451 9.36804L22.1143 10.0382ZM23.1084 11.1769L23.818 10.9339L23.8179 10.9336L23.1084 11.1769ZM23.2168 12.6281L23.9668 12.6281L23.9668 12.6281L23.2168 12.6281ZM23.1084 14.0802L23.8179 14.3234L23.8179 14.3232L23.1084 14.0802ZM22.1143 15.2189L22.4509 15.8891L22.4511 15.889L22.1143 15.2189ZM20.6904 15.5216L20.7912 16.2648L20.7918 16.2647L20.6904 15.5216ZM19.0713 16.6935L18.4213 16.3194L18.4212 16.3194L19.0713 16.6935ZM19.0576 16.7169L18.4088 16.3407L18.4088 16.3408L19.0576 16.7169ZM18.8506 18.7081L18.1563 18.9917L18.1564 18.9919L18.8506 18.7081ZM19.3008 20.0929L20.0495 20.0496L20.0495 20.0494L19.3008 20.0929ZM18.8115 21.5226L19.3769 22.0154L19.3769 22.0153L18.8115 21.5226ZM17.6084 22.3419L17.9834 22.9914L17.6084 22.3419ZM16.2969 22.9747L16.441 23.7108L16.4412 23.7107L16.2969 22.9747ZM14.8135 22.6827L14.4013 23.3094L14.4016 23.3095L14.8135 22.6827ZM13.8389 21.6017L13.2458 22.0608L13.246 22.061L13.8389 21.6017ZM12 20.7853L12 21.5353L12 21.5353L12 20.7853ZM11.9873 20.7853L11.986 21.5353L11.9861 21.5353L11.9873 20.7853ZM10.1611 21.6017L10.754 22.061L10.7545 22.0604L10.1611 21.6017ZM9.18652 22.6827L9.59844 23.3095L9.59862 23.3094L9.18652 22.6827ZM7.70312 22.9747L7.55883 23.7107L7.55901 23.7108L7.70312 22.9747ZM6.3916 22.3419L6.0166 22.9914L6.3916 22.3419ZM5.18848 21.5226L4.62309 22.0154L4.62313 22.0154L5.18848 21.5226ZM4.69922 20.0929L3.95048 20.0494L3.95046 20.0497L4.69922 20.0929ZM5.14941 18.7081L5.84365 18.9919L5.84396 18.9912L5.14941 18.7081ZM4.94141 16.7169L4.29261 17.0932L4.29262 17.0932L4.94141 16.7169ZM4.92773 16.6925L5.57782 16.3185L5.57781 16.3185L4.92773 16.6925ZM3.30957 15.5216L3.20824 16.2647L3.20875 16.2648L3.30957 15.5216ZM1.88574 15.2189L1.54888 15.889L1.54907 15.8891L1.88574 15.2189ZM0.891602 14.0802L0.182076 14.3232L0.182129 14.3234L0.891602 14.0802ZM0.78418 12.6281L1.53418 12.6281L1.53418 12.6281L0.78418 12.6281ZM0.891602 11.1769L0.18215 10.9336L0.182042 10.9339L0.891602 11.1769ZM1.88574 10.0382L1.54903 9.36804L1.54891 9.3681L1.88574 10.0382ZM3.30957 9.7345L3.41091 10.4776L3.41166 10.4775L3.30957 9.7345ZM4.92871 8.56165L4.27906 8.18688L4.27904 8.18691L4.92871 8.56165ZM4.94141 8.54016L5.58993 8.91688L5.59 8.91676L4.94141 8.54016ZM5.14844 6.54895L5.84273 6.2653L5.84267 6.26515L5.14844 6.54895ZM4.69922 5.16418L3.95047 5.20746L3.95047 5.20755L4.69922 5.16418ZM5.18848 3.7345L4.62319 3.2416L4.62312 3.24168L5.18848 3.7345ZM6.3916 2.91516L6.7666 3.56468L6.7666 3.56468L6.3916 2.91516ZM7.70312 2.28235L7.55906 1.54632L7.55901 1.54632L7.70312 2.28235ZM9.18555 2.57336L9.59746 1.9466L9.59729 1.94649L9.18555 2.57336ZM10.1602 3.6554L10.7531 3.19615L10.7531 3.19608L10.1602 3.6554ZM11.9844 4.47083L11.9844 3.72082L11.983 3.72083L11.9844 4.47083ZM12.0137 4.47083L12.015 3.72083H12.0137V4.47083ZM13.8398 3.6554L14.4325 4.11505L14.4327 4.11472L13.8398 3.6554ZM12 9.56946L12 8.81946L12 8.81946L12 9.56946ZM8.94141 12.6281L8.19141 12.6279V12.6281H8.94141ZM12 15.6876L12 16.4376H12V15.6876ZM15.0586 12.6281L15.8086 12.6281L15.8086 12.6279L15.0586 12.6281ZM14.8145 2.57336L15.2262 3.20022C15.4992 3.02089 15.8319 2.95557 16.1528 3.01838L16.2969 2.28235L16.441 1.54632C15.7355 1.40823 15.0037 1.5517 14.4027 1.94651L14.8145 2.57336ZM16.2969 2.28235L16.1528 3.01837C16.327 3.05248 16.5271 3.15593 17.2334 3.5637L17.6084 2.91418L17.9834 2.26467C17.3776 1.91489 16.9208 1.64028 16.441 1.54632L16.2969 2.28235ZM17.6084 2.91418L17.2334 3.5637C17.9393 3.97127 18.1294 4.09344 18.2462 4.22737L18.8115 3.7345L19.3768 3.24162C19.0556 2.8732 18.5898 2.61477 17.9834 2.26467L17.6084 2.91418ZM18.8115 3.7345L18.2462 4.2273C18.4611 4.47386 18.5709 4.79478 18.552 5.12091L19.3008 5.16418L20.0495 5.20746C20.091 4.48934 19.8493 3.78364 19.3769 3.24169L18.8115 3.7345ZM19.3008 5.16418L18.552 5.12073C18.5418 5.29785 18.4661 5.50973 18.1573 6.26515L18.8516 6.54895L19.5458 6.83275C19.8103 6.1858 20.0212 5.6958 20.0495 5.20764L19.3008 5.16418ZM18.8516 6.54895L18.1576 6.26452C17.7828 7.17893 17.9694 8.15853 18.409 8.91573L19.0576 8.53918L19.7062 8.16264C19.441 7.70567 19.3879 7.21804 19.5455 6.83338L18.8516 6.54895ZM19.0576 8.53918L18.409 8.91573C18.4116 8.9203 18.414 8.9243 18.4158 8.92735C18.4175 8.93023 18.4192 8.93307 18.4201 8.93445C18.4224 8.93837 18.4217 8.93729 18.4205 8.93523L19.0703 8.56067L19.7201 8.18611C19.7147 8.17684 19.7098 8.16862 19.7079 8.16539C19.7051 8.16065 19.7055 8.1614 19.7062 8.16264L19.0576 8.53918ZM19.0703 8.56067L18.4205 8.9352C18.857 9.69244 19.6104 10.3433 20.5884 10.4775L20.6904 9.7345L20.7924 8.99147C20.3802 8.93487 19.9844 8.64467 19.7201 8.18614L19.0703 8.56067ZM20.6904 9.7345L20.5891 10.4776C21.3971 10.5878 21.6189 10.6286 21.7775 10.7084L22.1143 10.0382L22.451 9.36804C22.0142 9.14858 21.485 9.08591 20.7918 8.99137L20.6904 9.7345ZM22.1143 10.0382L21.7774 10.7083C22.0696 10.8552 22.293 11.111 22.3989 11.4201L23.1084 11.1769L23.8179 10.9336C23.5846 10.2533 23.0936 9.69104 22.4511 9.3681L22.1143 10.0382ZM23.1084 11.1769L22.3988 11.4198C22.4563 11.5878 22.4668 11.813 22.4668 12.6281L23.2168 12.6281L23.9668 12.6281C23.9668 11.9289 23.9762 11.3962 23.818 10.9339L23.1084 11.1769ZM23.2168 12.6281L22.4668 12.6281C22.4668 13.4438 22.4564 13.6692 22.3989 13.8372L23.1084 14.0802L23.8179 14.3232C23.9763 13.8608 23.9668 13.3274 23.9668 12.6281L23.2168 12.6281ZM23.1084 14.0802L22.3989 13.837C22.293 14.1461 22.0696 14.4019 21.7774 14.5488L22.1143 15.2189L22.4511 15.889C23.0935 15.566 23.5846 15.0039 23.8179 14.3234L23.1084 14.0802ZM22.1143 15.2189L21.7776 14.5487C21.6192 14.6282 21.3987 14.6681 20.5891 14.7785L20.6904 15.5216L20.7918 16.2647C21.4833 16.1704 22.0138 16.1086 22.4509 15.8891L22.1143 15.2189ZM20.6904 15.5216L20.5897 14.7784C19.6112 14.911 18.8573 15.5618 18.4213 16.3194L19.0713 16.6935L19.7213 17.0676C19.9848 16.6097 20.38 16.3205 20.7912 16.2648L20.6904 15.5216ZM19.0713 16.6935L18.4212 16.3194C18.4143 16.3315 18.4221 16.3177 18.4088 16.3407L19.0576 16.7169L19.7064 17.0931C19.7076 17.0912 19.7087 17.0892 19.7115 17.0845C19.7138 17.0805 19.7175 17.0743 19.7213 17.0676L19.0713 16.6935ZM19.0576 16.7169L18.4088 16.3408C17.9698 17.0979 17.7826 18.0768 18.1563 18.9917L18.8506 18.7081L19.5449 18.4245C19.3875 18.0391 19.4409 17.5511 19.7065 17.0931L19.0576 16.7169ZM18.8506 18.7081L18.1564 18.9919C18.4658 19.7489 18.5418 19.9596 18.552 20.1363L19.3008 20.0929L20.0495 20.0494C20.0212 19.5609 19.8087 19.0698 19.5448 18.4243L18.8506 18.7081ZM19.3008 20.0929L18.552 20.1362C18.5709 20.4622 18.461 20.7832 18.2461 21.0298L18.8115 21.5226L19.3769 22.0153C19.8492 21.4735 20.091 20.7677 20.0495 20.0496L19.3008 20.0929ZM18.8115 21.5226L18.2462 21.0298C18.1297 21.1634 17.9404 21.2842 17.2334 21.6924L17.6084 22.3419L17.9834 22.9914C18.5882 22.6422 19.0555 22.3841 19.3769 22.0154L18.8115 21.5226ZM17.6084 22.3419L17.2334 21.6924C16.526 22.1008 16.3265 22.2046 16.1526 22.2387L16.2969 22.9747L16.4412 23.7107C16.9211 23.6166 17.3788 23.3405 17.9834 22.9914L17.6084 22.3419ZM16.2969 22.9747L16.1528 22.2387C15.8324 22.3014 15.499 22.2358 15.2254 22.056L14.8135 22.6827L14.4016 23.3095C15.0022 23.7042 15.7347 23.8491 16.441 23.7108L16.2969 22.9747ZM14.8135 22.6827L15.2256 22.0561C15.0773 21.9585 14.9311 21.787 14.4318 21.1424L13.8389 21.6017L13.246 22.061C13.6743 22.6139 13.993 23.0408 14.4013 23.3094L14.8135 22.6827ZM13.8389 21.6017L14.432 21.1426C13.8242 20.3574 12.8691 20.0353 12 20.0353L12 20.7853L12 21.5353C12.5359 21.5353 12.9936 21.735 13.2458 22.0608L13.8389 21.6017ZM12 20.7853L12 20.0353C11.994 20.0353 11.9921 20.0353 11.9885 20.0353L11.9873 20.7853L11.9861 21.5353C11.991 21.5353 11.9975 21.5353 12 21.5353L12 20.7853ZM11.9873 20.7853L11.9886 20.0353C11.114 20.0338 10.1725 20.3607 9.56773 21.143L10.1611 21.6017L10.7545 22.0604C11.0084 21.7319 11.4566 21.5344 11.986 21.5353L11.9873 20.7853ZM10.1611 21.6017L9.56824 21.1424C9.06885 21.787 8.92276 21.9586 8.77443 22.0561L9.18652 22.6827L9.59862 23.3094C10.007 23.0408 10.3258 22.6138 10.754 22.061L10.1611 21.6017ZM9.18652 22.6827L8.77461 22.056C8.50098 22.2358 8.16757 22.3014 7.84724 22.2387L7.70312 22.9747L7.55901 23.7108C8.26534 23.8491 8.99781 23.7042 9.59844 23.3095L9.18652 22.6827ZM7.70312 22.9747L7.84742 22.2387C7.67346 22.2046 7.47405 22.1008 6.7666 21.6924L6.3916 22.3419L6.0166 22.9914C6.62121 23.3405 7.07887 23.6166 7.55883 23.7107L7.70312 22.9747ZM6.3916 22.3419L6.7666 21.6924C6.05957 21.2842 5.87031 21.1634 5.75382 21.0297L5.18848 21.5226L4.62313 22.0154C4.94454 22.3841 5.41175 22.6422 6.0166 22.9914L6.3916 22.3419ZM5.18848 21.5226L5.75387 21.0298C5.53904 20.7833 5.42916 20.4622 5.44797 20.1361L4.69922 20.0929L3.95046 20.0497C3.90904 20.7676 4.15078 21.4735 4.62309 22.0154L5.18848 21.5226ZM4.69922 20.0929L5.44796 20.1363C5.45821 19.9596 5.53422 19.7488 5.84364 18.9919L5.14941 18.7081L4.45518 18.4243C4.19137 19.0697 3.97883 19.5609 3.95048 20.0494L4.69922 20.0929ZM5.14941 18.7081L5.84396 18.9912C6.21681 18.0762 6.02914 17.0975 5.59019 16.3407L4.94141 16.7169L4.29262 17.0932C4.55828 17.5513 4.61203 18.0394 4.45487 18.4251L5.14941 18.7081ZM4.94141 16.7169L5.5902 16.3407C5.5916 16.3431 5.5925 16.3447 5.59263 16.3449C5.59268 16.345 5.59251 16.3447 5.59136 16.3426C5.59051 16.3411 5.58853 16.3375 5.58647 16.3338C5.58428 16.3299 5.58131 16.3246 5.57782 16.3185L4.92773 16.6925L4.27765 17.0665C4.27648 17.0645 4.27579 17.0632 4.27587 17.0634C4.27608 17.0638 4.27635 17.0643 4.27776 17.0668C4.27966 17.0703 4.28563 17.0811 4.29261 17.0932L4.94141 16.7169ZM4.92773 16.6925L5.57781 16.3185C5.14193 15.5609 4.38801 14.911 3.41039 14.7784L3.30957 15.5216L3.20875 16.2648C3.61972 16.3205 4.01468 16.6095 4.27766 17.0665L4.92773 16.6925ZM3.30957 15.5216L3.41091 14.7785C2.6013 14.6681 2.38078 14.6282 2.22241 14.5487L1.88574 15.2189L1.54907 15.8891C1.98616 16.1086 2.51671 16.1704 3.20824 16.2647L3.30957 15.5216ZM1.88574 15.2189L2.2226 14.5488C1.93035 14.4019 1.70702 14.1461 1.60107 13.837L0.891602 14.0802L0.182129 14.3234C0.415408 15.0039 0.906485 15.566 1.54888 15.889L1.88574 15.2189ZM0.891602 14.0802L1.60113 13.8372C1.54372 13.6696 1.53418 13.4455 1.53418 12.6281L0.78418 12.6281L0.0341797 12.6281C0.0341796 13.3257 0.0235295 13.8604 0.182076 14.3232L0.891602 14.0802ZM0.78418 12.6281L1.53418 12.6281C1.53418 11.8112 1.54378 11.5874 1.60116 11.4198L0.891602 11.1769L0.182042 10.9339C0.0236339 11.3966 0.0341797 11.9307 0.0341797 12.6281L0.78418 12.6281ZM0.891602 11.1769L1.60105 11.4201C1.70705 11.111 1.93043 10.8552 2.22258 10.7083L1.88574 10.0382L1.54891 9.3681C0.906444 9.69104 0.415439 10.2533 0.18215 10.9336L0.891602 11.1769ZM1.88574 10.0382L2.22246 10.7084C2.38114 10.6286 2.60288 10.5878 3.41091 10.4776L3.30957 9.7345L3.20824 8.99137C2.51498 9.08591 1.98582 9.14858 1.54903 9.36804L1.88574 10.0382ZM3.30957 9.7345L3.41166 10.4775C4.38893 10.3432 5.14202 9.6929 5.57838 8.93638L4.92871 8.56165L4.27904 8.18691C4.01485 8.64493 3.61925 8.9349 3.20748 8.99148L3.30957 9.7345ZM4.92871 8.56165L5.57837 8.93641C5.57762 8.93771 5.57722 8.93838 5.57739 8.93808C5.57762 8.93771 5.57801 8.93705 5.57908 8.93525C5.57992 8.93384 5.5816 8.93104 5.58326 8.92823C5.58502 8.92527 5.58734 8.92134 5.58993 8.91688L4.94141 8.54016L4.29288 8.16345C4.29353 8.16233 4.2939 8.16173 4.29102 8.16654C4.28913 8.16972 4.28426 8.17786 4.27906 8.18688L4.92871 8.56165ZM4.94141 8.54016L5.59 8.91676C6.02981 8.15931 6.21639 7.17993 5.84273 6.2653L5.14844 6.54895L4.45414 6.8326C4.61168 7.21821 4.55828 7.70637 4.29281 8.16356L4.94141 8.54016ZM5.14844 6.54895L5.84267 6.26515C5.5338 5.5096 5.45822 5.29789 5.44796 5.12081L4.69922 5.16418L3.95047 5.20755C3.97876 5.69582 4.18975 6.18584 4.45421 6.83275L5.14844 6.54895ZM4.69922 5.16418L5.44797 5.12091C5.42912 4.79474 5.53892 4.47386 5.75383 4.22732L5.18848 3.7345L4.62312 3.24168C4.15069 3.78365 3.90896 4.48934 3.95047 5.20746L4.69922 5.16418ZM5.18848 3.7345L5.75376 4.2274C5.87031 4.09373 6.05958 3.97288 6.7666 3.56468L6.3916 2.91516L6.0166 2.26564C5.41159 2.61495 4.94459 2.87299 4.62319 3.2416L5.18848 3.7345ZM6.3916 2.91516L6.7666 3.56468C7.47439 3.15604 7.67334 3.05242 7.84724 3.01837L7.70312 2.28235L7.55901 1.54632C7.0788 1.64035 6.62121 1.91657 6.0166 2.26564L6.3916 2.91516ZM7.70312 2.28235L7.84719 3.01838C8.16802 2.95558 8.50079 3.02092 8.77381 3.20024L9.18555 2.57336L9.59729 1.94649C8.99629 1.55175 8.26446 1.40824 7.55906 1.54632L7.70312 2.28235ZM9.18555 2.57336L8.77363 3.20012C8.92171 3.29744 9.06689 3.46884 9.56726 4.11472L10.1602 3.6554L10.7531 3.19608C10.3255 2.64421 10.0063 2.21532 9.59746 1.9466L9.18555 2.57336ZM10.1602 3.6554L9.5672 4.11464C10.1716 4.89495 11.1113 5.22244 11.9858 5.22082L11.9844 4.47083L11.983 3.72083C11.4552 3.7218 11.0074 3.52448 10.7531 3.19615L10.1602 3.6554ZM11.9844 4.47083V5.22083H12.0137V4.47083V3.72083H11.9844V4.47083ZM12.0137 4.47083L12.0124 5.22082C12.8869 5.22235 13.8273 4.89532 14.4325 4.11505L13.8398 3.6554L13.2472 3.19574C12.9923 3.52437 12.5437 3.72175 12.015 3.72083L12.0137 4.47083ZM13.8398 3.6554L14.4327 4.11472C14.9332 3.46877 15.0783 3.29745 15.2264 3.20012L14.8145 2.57336L14.4025 1.9466C13.9937 2.21533 13.6745 2.64415 13.2469 3.19608L13.8398 3.6554ZM12 9.56946L12 8.81946C9.89639 8.81946 8.1917 10.5247 8.19141 12.6279L8.94141 12.6281L9.69141 12.6282C9.69159 11.353 10.725 10.3195 12 10.3195L12 9.56946ZM8.94141 12.6281H8.19141C8.19141 14.7314 9.89604 16.4376 12 16.4376L12 15.6876L12 14.9376C10.7251 14.9376 9.69141 13.9036 9.69141 12.6281H8.94141ZM12 15.6876V16.4376C14.104 16.4376 15.8086 14.7314 15.8086 12.6281H15.0586H14.3086C14.3086 13.9036 13.2749 14.9376 12 14.9376V15.6876ZM15.0586 12.6281L15.8086 12.6279C15.8083 10.5247 14.1036 8.81946 12 8.81946V9.56946V10.3195C13.275 10.3195 14.3084 11.353 14.3086 12.6282L15.0586 12.6281Z" fill="white"/>
</svg>
